<?xml version="1.0" standalone="no"?>
<!DOCTYPE svg PUBLIC "-//W3C//DTD SVG 20010904//EN"
 "http://www.w3.org/TR/2001/REC-SVG-20010904/DTD/svg10.dtd">
<svg version="1.0" xmlns="http://www.w3.org/2000/svg"
 width="700.000000pt" height="700.000000pt" viewBox="0 0 700.000000 700.000000"
 preserveAspectRatio="xMidYMid meet">
<metadata>
Created by potrace 1.14, written by Peter Selinger 2001-2017
</metadata>
<g transform="translate(0.000000,700.000000) scale(0.100000,-0.100000)"
fill="#000000" stroke="none">
<path d="M562 6201 c-10 -6 8 -24 65 -63 115 -81 205 -180 247 -270 40 -88 44
-103 61 -218 2 -14 7 -77 10 -140 4 -63 8 -117 10 -121 3 -3 7 -25 10 -48 7
-59 49 -179 89 -259 72 -142 221 -321 325 -391 144 -96 244 -121 481 -121 96
1 182 -1 190 -4 8 -3 33 -7 55 -10 40 -5 116 -30 189 -61 106 -45 244 -162
323 -272 108 -152 151 -353 115 -543 -13 -68 -5 -181 22 -315 17 -87 23 -143
20 -205 -5 -123 -15 -162 -70 -273 -43 -86 -72 -125 -154 -207 -102 -103 -213
-169 -345 -209 -105 -31 -118 -33 -275 -36 -80 -2 -161 -7 -180 -11 -19 -3
-48 -8 -65 -11 -49 -8 -152 -53 -216 -95 -146 -93 -357 -356 -473 -586 -48
-95 -116 -302 -100 -302 3 0 17 12 32 26 39 37 121 74 165 74 51 0 95 -26 118
-72 47 -91 12 -169 -189 -429 -84 -109 -134 -198 -172 -308 -35 -102 -42 -142
-43 -234 0 -88 14 -104 44 -46 70 138 187 266 289 316 95 46 114 50 240 58
208 13 272 26 390 77 130 57 323 228 415 368 28 41 80 103 117 138 82 78 139
166 174 269 22 65 26 93 24 168 -4 151 -2 235 9 285 35 165 159 348 294 434
86 55 295 115 502 145 407 58 925 12 1100 -97 64 -41 165 -142 210 -212 83
-129 106 -212 110 -385 3 -143 8 -176 35 -249 34 -90 93 -167 224 -293 235
-226 496 -377 706 -409 l44 -6 -32 36 c-115 132 -112 291 7 327 71 21 146 -18
376 -194 175 -135 387 -201 539 -168 41 8 37 21 -15 49 -162 88 -273 197 -330
326 -23 52 -55 189 -64 271 -3 33 -11 78 -16 100 -5 22 -12 49 -14 60 -29 130
-109 280 -217 408 -116 136 -194 200 -303 248 -63 28 -211 55 -280 52 -308
-14 -382 -8 -519 45 -121 47 -274 163 -359 271 -36 45 -86 147 -108 221 -24
77 -25 93 -19 390 1 65 -4 123 -18 185 -36 157 -22 294 44 431 103 218 329
393 574 444 39 8 141 15 255 16 191 2 212 4 296 28 184 55 498 295 651 500 52
69 98 145 98 160 0 3 -20 -4 -44 -15 -104 -46 -196 -31 -243 40 -70 104 9 213
295 406 49 32 141 121 194 186 69 84 125 205 143 307 7 40 0 37 -65 -24 -144
-137 -259 -194 -402 -200 -59 -2 -105 4 -200 27 -207 50 -347 50 -508 -3 -124
-40 -269 -124 -374 -216 -33 -29 -63 -52 -68 -52 -16 0 -152 -106 -192 -150
-72 -78 -135 -202 -151 -295 -3 -22 -6 -69 -4 -105 8 -278 -53 -440 -230 -609
-102 -97 -201 -134 -496 -186 -152 -26 -605 -27 -755 -1 -14 2 -47 8 -75 12
-133 20 -258 55 -340 97 -59 29 -180 152 -230 232 -24 39 -56 106 -71 150 -26
73 -28 95 -31 245 -1 91 -8 185 -14 210 -21 77 -91 207 -129 240 -3 3 -40 46
-82 95 -160 190 -349 341 -531 425 -86 39 -174 67 -183 57 -3 -3 5 -21 19 -39
48 -64 61 -100 61 -175 1 -66 -1 -74 -29 -102 -81 -86 -169 -55 -369 129 -159
146 -254 207 -390 249 -70 22 -198 29 -224 12z"/>
</g>
</svg>
